<svg width="32" height="32" viewBox="0 0 32 32" fill="none" xmlns="http://www.w3.org/2000/svg">
<g clip-path="url(#clip0_26_42)">
<path d="M10.5526 13.352L14.6166 13.544L19.3526 24.328L24.6006 13.544L28.4086 13.352C28.5793 13.352 28.7073 13.4693 28.7926 13.704C28.8993 13.9173 28.9526 14.1413 28.9526 14.376L26.9366 14.856L27.7046 27.56C27.8753 27.6027 28.2166 27.6773 28.7286 27.784C29.2406 27.8693 29.582 27.944 29.7526 28.008C29.7526 28.6693 29.5713 29 29.2086 29L26.4886 28.808L23.8326 29C23.4486 29 23.2566 28.6693 23.2566 28.008L25.4966 27.528L25.0166 16.552L19.4486 27.912H18.7126L13.6246 16.776L13.2086 27.56C13.3153 27.5813 14.0513 27.7307 15.4166 28.008C15.4166 28.6693 15.214 29 14.8086 29L12.1846 28.808L9.78463 29C9.42196 29 9.24063 28.6693 9.24063 28.008L11.2886 27.56C11.374 26.1307 11.4913 24.008 11.6406 21.192C11.8113 18.376 11.9393 16.2533 12.0246 14.824L10.0086 14.376C10.0086 13.6933 10.19 13.352 10.5526 13.352Z" fill="#4461F2"/>
<path d="M7.21094 4.75781C8.0625 4.65625 8.96094 4.60547 9.90625 4.60547C10.9453 4.60547 11.875 4.76953 12.6953 5.09766C13.5234 5.42578 14.1914 5.84766 14.6992 6.36328C15.2148 6.87109 15.6367 7.47266 15.9648 8.16797C16.293 8.86328 16.5195 9.55469 16.6445 10.2422C16.7773 10.9219 16.8438 11.6211 16.8438 12.3398C16.8438 14.707 16.1797 16.6016 14.8516 18.0234C13.5234 19.4453 11.6094 20.1562 9.10938 20.1562L7.1875 20.1328C7.10938 16.8906 7.07031 14.4688 7.07031 12.8672C7.07031 9.96875 7.11719 7.26562 7.21094 4.75781ZM9.73047 21.4805C7.11328 21.4805 4.5 21.5117 1.89062 21.5742C1.69531 21.0352 1.69531 20.5312 1.89062 20.0625C3.58594 19.8906 4.44141 19.6602 4.45703 19.3711C4.55078 16.918 4.59766 14.4609 4.59766 12C4.59766 9.48438 4.55859 7.30859 4.48047 5.47266C4.46484 5.18359 3.59375 4.95312 1.86719 4.78125C1.73438 4.28125 1.75 3.77734 1.91406 3.26953C2.875 3.28516 5.86719 3.29297 10.8906 3.29297C11.9766 3.29297 12.9727 3.35938 13.8789 3.49219C14.793 3.625 15.7227 3.89453 16.668 4.30078C17.6133 4.69922 18.4102 5.22266 19.0586 5.87109C19.707 6.51953 20.2344 7.39453 20.6406 8.49609C21.0469 9.59766 21.25 10.8867 21.25 12.3633C21.25 13.7695 21.0117 15.0156 20.5352 16.1016C20.0586 17.1875 19.4336 18.0625 18.6602 18.7266C17.8945 19.3906 16.9922 19.9375 15.9531 20.3672C14.9141 20.7891 13.8906 21.0781 12.8828 21.2344C11.875 21.3984 10.8242 21.4805 9.73047 21.4805ZM9.01562 5.17969C8.92188 7.92188 8.875 10.4844 8.875 12.8672C8.875 14.8047 8.90625 17.0742 8.96875 19.6758C11.4297 19.6133 13.2773 18.9219 14.5117 17.6016C15.7461 16.2812 16.3633 14.5273 16.3633 12.3398C16.3633 11.4883 16.2617 10.6758 16.0586 9.90234C15.8555 9.12109 15.5312 8.36328 15.0859 7.62891C14.6406 6.89453 13.9883 6.30078 13.1289 5.84766C12.2773 5.38672 11.2734 5.14062 10.1172 5.10938C9.73438 5.10938 9.36719 5.13281 9.01562 5.17969ZM2.21875 21.0703C3.89844 21.0234 6.125 21 8.89844 21C9.89062 21 10.8477 20.9258 11.7695 20.7773C12.6992 20.6211 13.6406 20.3398 14.5938 19.9336C15.5469 19.5273 16.3711 19.0117 17.0664 18.3867C17.7617 17.7617 18.332 16.9297 18.7773 15.8906C19.2305 14.8516 19.457 13.668 19.457 12.3398C19.457 6.62891 16.3203 3.77344 10.0469 3.77344C9.46875 3.77344 8.64844 3.78516 7.58594 3.80859C6.52344 3.83203 5.55859 3.84375 4.69141 3.84375C3.83203 3.84375 3.01562 3.82031 2.24219 3.77344C2.17969 3.91406 2.17969 4.09766 2.24219 4.32422C4.03906 4.49609 4.94531 4.87109 4.96094 5.44922C5.03906 7.28516 5.07812 9.46875 5.07812 12C5.07812 14.4766 5.03125 16.9414 4.9375 19.3945C4.92188 19.9727 4.01562 20.3477 2.21875 20.5195C2.14062 20.6992 2.14062 20.8828 2.21875 21.0703Z" fill="black"/>
</g>
<defs>
<clipPath id="clip0_26_42">
<rect width="32" height="32" fill="white"/>
</clipPath>
</defs>
</svg>
